<svg id="logo" xmlns="http://www.w3.org/2000/svg" viewBox="0 0 188.45 27"><title>logo-white</title><g id="V_favicon" data-name="V favicon"><rect width="27" height="27" style="fill:#ff4242"/><path id="v" d="M17.05,27l9.7-27h-7.6l-5.7,18.7L7.65,0H-.25l9.6,27Z" transform="translate(0.25)" style="fill:#fff"/></g><path id="erdict" d="M54.65,6.8v-4H38.15V24.3h16.9v-4h-12V15.5h10.5v-4H43.05V6.8ZM77,24.3h5.6L78,17.2c2.6-1.2,4.1-3.6,4.1-7,0-4.8-3.2-7.5-8.9-7.5h-9.4V24.2h4.9V18h5Zm-8.4-10.2V6.8h4.5c2.7,0,4.2,1.2,4.2,3.6s-1.6,3.7-4.2,3.7ZM91.15,2.7V24.2h9c6.9,0,11.6-4.4,11.6-10.8s-4.7-10.8-11.4-10.8l-9.2.1Zm4.9,4.1h4.2a6.36,6.36,0,0,1,6.5,6.2v.5a6.23,6.23,0,0,1-6.3,6.6h-4.4V6.8Zm28.6,17.5V2.7h-4.9V24.2l4.9.1Zm19.1-21.7c-6.6,0-11.6,4.7-11.6,10.9s4.9,11,11.4,11a13.13,13.13,0,0,0,8.8-3.8l-2.9-3.1a8.52,8.52,0,0,1-5.6,2.5,6.6,6.6,0,1,1,0-13.2,7.64,7.64,0,0,1,5.6,2.8l2.9-3.4a11.89,11.89,0,0,0-8.6-3.7Zm32.5,4.3V2.7h-18.1V6.8h6.6V24.2h4.9V6.9Z" transform="translate(0.25)" style="fill:#fff"/><path d="M179.06,7.92V3.55H177.6v-1h4.15v1h-1.47V7.92Z" transform="translate(0.25)" style="fill:#fff"/><path d="M187,7.92l-.09-2.07c0-.86,0-1.6,0-2.21h0c-.19.72-.39,1.41-.61,2.09l-.66,2.1h-1l-.57-2.09c-.18-.65-.35-1.36-.49-2.1h0c0,.83-.05,1.57-.09,2.23l-.1,2.05h-1.13l.35-5.39h1.62l.53,1.8c.18.65.33,1.29.46,1.92h0c.16-.72.33-1.36.51-1.93l.57-1.79h1.6l.29,5.39Z" transform="translate(0.25)" style="fill:#fff"/></svg>